<svg width="32" height="32" viewBox="0 0 32 32" fill="none" xmlns="http://www.w3.org/2000/svg">
<circle cx="16" cy="16" r="16" fill="black"/>
<path d="M23.0909 9C21.6988 9.04714 20.3349 9.45964 19.1051 10.2055C17.8753 10.9513 16.8128 12.0104 16 13.3006C15.1872 12.0104 14.1247 10.9513 12.8949 10.2055C11.6651 9.45964 10.3012 9.04714 8.90909 9C4.55173 9 3 12.4823 3 15.7407C3 20.7114 6.05264 22.4815 8.90909 22.4815C10.3012 22.4343 11.6651 22.0218 12.8949 21.276C14.1247 20.5302 15.1872 19.471 16 18.1809C16.8128 19.471 17.8753 20.5302 19.1051 21.276C20.3349 22.0218 21.6988 22.4343 23.0909 22.4815C25.9474 22.4815 29 20.7114 29 15.7407C29 12.4823 27.4483 9 23.0909 9ZM8.90909 19.7852C8.42925 19.8532 7.94212 19.7954 7.48482 19.6162C7.02752 19.437 6.61209 19.1411 6.27018 18.7511C5.92827 18.361 5.66889 17.8871 5.51179 17.3655C5.3547 16.8438 5.30402 16.2881 5.36364 15.7407C5.30402 15.1934 5.3547 14.6377 5.51179 14.116C5.66889 13.5944 5.92827 13.1205 6.27018 12.7304C6.61209 12.3404 7.02752 12.0445 7.48482 11.8653C7.94212 11.6861 8.42925 11.6283 8.90909 11.6963C11.957 11.6963 13.9023 14.4802 14.6255 15.7407C13.9023 17.0013 11.957 19.7852 8.90909 19.7852ZM23.0909 19.7852C20.043 19.7852 18.0977 17.0013 17.3745 15.7407C18.0977 14.4802 20.043 11.6963 23.0909 11.6963C23.5708 11.6283 24.0579 11.6861 24.5152 11.8653C24.9725 12.0445 25.3879 12.3404 25.7298 12.7304C26.0717 13.1205 26.3311 13.5944 26.4882 14.116C26.6453 14.6377 26.696 15.1934 26.6364 15.7407C26.696 16.2881 26.6453 16.8438 26.4882 17.3655C26.3311 17.8871 26.0717 18.361 25.7298 18.7511C25.3879 19.1411 24.9725 19.437 24.5152 19.6162C24.0579 19.7954 23.5708 19.8532 23.0909 19.7852Z" fill="white"/>
</svg>
